<svg id="Layer_1" xmlns="http://www.w3.org/2000/svg" viewBox="0 0 340.1 354"><style>.st0{fill:#FFFFFF;} .st1{fill:#FF6A26;} .st2{fill:#8CC1FF;}</style><path class="st0" d="M340.1 76.8V14.4c0-8-6.5-14.4-14.4-14.4H14.4C6.4 0 0 6.5 0 14.4v62.4c0 5.1 2.7 9.6 6.7 12.2-4 2.6-6.7 7.1-6.7 12.2v184c0 8 6.5 14.5 14.5 14.5h147.7V354l48.6-54.3h45.8c7.1 0 16.5-3.9 21.5-8.9l53.1-53.1c5-5 8.9-14.5 8.9-21.5v-115c0-5.1-2.7-9.6-6.7-12.2 4-2.6 6.7-7.1 6.7-12.2z"/><path class="st1" d="M14.4 6.4c-4.4 0-8 3.6-8 8v62.4c0 4.4 3.6 8 8 8h311.3c4.4 0 8-3.6 8-8V14.4c0-4.4-3.6-8-8-8H14.4z"/><path class="st0" d="M33.8 60.5c-6.9 0-12.5-2.6-12.5-9.4v-16c0-6.8 5.6-9.5 12.5-9.5 7 0 12.6 2.7 12.6 9.5v16c0 6.8-5.7 9.4-12.6 9.4zm7.9-25.4c0-4.8-4.3-5.8-7.9-5.8-3.5 0-7.9 1-7.9 5.8v16c0 4.8 4.4 5.7 7.9 5.7s7.9-.9 7.9-5.7v-16zM63.8 60.5c-2.5 0-4.5-1.1-6-2.6v11.3c0 .5-1.3.5-2.2.5s-2.2 0-2.2-.5V35.4c0-.5 1.3-.5 2.2-.5s2.2 0 2.2.5V38c2-3 4.7-3.4 6.7-3.5 6.4-.3 9.4 3.7 9.4 10v5.9c-.1 6.3-3.5 10.1-10.1 10.1zm5.4-16.9c0-4.6-2.6-5.8-5.3-5.8-3.4 0-6.2 3.7-6.2 6.2v6.5c0 4.8 2.8 6.7 6 6.7 3.3 0 5.4-2.2 5.4-6.6v-7h.1zM90.4 60.5c-2.5 0-4.5-1.1-6-2.6v11.3c0 .5-1.3.5-2.2.5-.9 0-2.2 0-2.2-.5V35.4c0-.5 1.3-.5 2.2-.5.9 0 2.2 0 2.2.5V38c2-3 4.7-3.4 6.7-3.5 6.4-.3 9.4 3.7 9.4 10v5.9c0 6.3-3.5 10.1-10.1 10.1zm5.5-16.9c0-4.6-2.6-5.8-5.3-5.8-3.4 0-6.2 3.7-6.2 6.2v6.5c0 4.8 2.8 6.7 6 6.7 3.3 0 5.4-2.2 5.4-6.6l.1-7zM114.3 60h-2.8c-3.7 0-4.7-1.7-4.7-5.1V26.5c0-.5 1.3-.5 2.2-.5.9 0 2.2 0 2.2.5v29.1c0 .9.4 1 1.2 1h2c.5 0 .5.8.5 1.7 0 .8-.1 1.7-.6 1.7zM126.6 69.2c-.2.5-1 .5-2.2.5s-2.2 0-2-.5l3.4-9.4-9-24.4c-.2-.5 1.2-.5 2.4-.5s2.2 0 2.3.5l6.5 18.4c.1.4.2.9.2.9s0-.5.2-.9l6.4-18.4c.2-.5 1.4-.5 2.3-.5.9 0 2.5 0 2.3.5l-12.8 33.8zM150.5 60.5c-4.4 0-7.9-2.2-8.3-2.5-.4-.3.1-1.1.5-1.8s.8-1.6 1.2-1.3c1.9 1.1 4.1 2.4 6.5 2.4 2.2 0 4-.5 4.7-2.8.7-2.3-.6-4-2.5-4.7l-5.7-2.3c-2.9-1.2-4.7-3.8-4.2-6.9.6-4.8 4.5-6.1 8-6.1 3.3 0 6.3 1.2 7.2 1.5.5.2.2 1.2-.1 1.9-.3.8-.7 1.7-1.2 1.5-.8-.3-3.3-1.7-5.7-1.7-1.4 0-3.4.1-4.1 2-.5 1.3 0 2.9 1.9 3.7l6.1 2.4c3.5 1.4 5.5 4.5 4.6 8.7-.9 4.1-4.5 6-8.9 6zM182.8 60.2c-.9 0-2.2 0-2.2-.5V42.9c0-1.3-.8-4.3-4.3-4.3-1.5 0-3.1 1-4.5 2.7l-2.1 2.7v15.7c0 .5-1.3.5-2.2.5s-2.2 0-2.2-.5V35.4c0-.5 1.3-.5 2.2-.5s2.2 0 2.2.5v4.1s1.5-1.8 1.9-2.3c.6-.6 2.3-2.7 6.4-2.7 3.8 0 7 3 7 8.2v17c0 .5-1.3.5-2.2.5zM194.2 30.8c-.9 0-2.3-.2-2.3-.7v-3.5c0-.5 1.4-.6 2.3-.6.9 0 2.2.1 2.2.6v3.5c0 .5-1.3.7-2.2.7zm-.1 29.4c-.9 0-2.2 0-2.2-.5V35.4c0-.5 1.3-.5 2.3-.5.9 0 2.2 0 2.2.5v24.3c-.1.5-1.4.5-2.3.5zM220.6 60.2c-.9 0-2.2 0-2.2-.5V42.9c0-1.3-.8-4.3-4.3-4.3-1.5 0-3.1 1-4.5 2.7l-2.1 2.7v15.7c0 .5-1.3.5-2.2.5s-2.2 0-2.2-.5V35.4c0-.5 1.3-.5 2.2-.5s2.2 0 2.2.5v4.1s1.5-1.8 1.9-2.3c.6-.6 2.4-2.7 6.4-2.7 3.8 0 7 3 7 8.2v17c0 .5-1.3.5-2.2.5zM245.9 67.8c-2.2 1.5-4.5 1.9-6.9 1.9-3.3 0-6-1.1-7.9-2.6-.4-.3.1-1.1.6-1.8.5-.8 1-1.3 1.4-1 .5.4 2.7 2.2 6.1 2.2 1.8 0 5.8-1.2 5.8-6.3V57s-2.1 3.5-6.8 3.5c-6 0-9.3-3-9.3-9.3v-7.6c0-6.2 4.1-9.1 9.4-9.1 2.9 0 5.4.9 6.6 2.9v-2c0-.5 1.3-.6 2.2-.6s2.2.1 2.2.6v23.3c.1 2.1.1 6.7-3.4 9.1zm-.9-24.7c0-.6-.8-5.3-5.7-5.3-3.2 0-5.8 1.8-5.8 5.6v8.5c0 3.1 2.2 5.4 5.4 5.4s6-3.2 6-6.6v-7.6h.1zM260 49.2v2.4c0 3.3 2.7 5.6 5.7 5.6 3.2 0 5-.8 7.7-2.3.4-.2.9.4 1.2 1.2.4.8.6 1.6.3 1.8-3.5 2.4-7 2.5-9.3 2.5-5.3 0-10.3-3.6-10.3-9.4v-7.5c0-5.7 4.9-9.2 10.5-9.2 5.5 0 10.2 2.3 10.2 9.1V49h-16v.2zm11.6-5.7c0-3.3-2.7-5.7-5.7-5.7-3.6 0-6 2.3-6 5.6V46h11.7v-2.5zM299.4 60.2c-.9 0-2.2 0-2.2-.5V42.9c0-1.3-.8-4.3-4.3-4.3-1.5 0-3.1 1-4.5 2.7l-2.1 2.7v15.7c0 .5-1.3.5-2.2.5-.9 0-2.2 0-2.2-.5V35.4c0-.5 1.3-.5 2.2-.5.9 0 2.2 0 2.2.5v4.1s1.5-1.8 1.9-2.3c.6-.6 2.4-2.7 6.4-2.7 3.8 0 7 3 7 8.2v17c0 .5-1.3.5-2.2.5zM316 43.7c-5.3 0-9.7-4.3-9.7-9.7 0-5.3 4.3-9.7 9.7-9.7 5.3 0 9.6 4.3 9.6 9.7s-4.3 9.7-9.6 9.7zm0-17.2c-4.2 0-7.6 3.4-7.6 7.6 0 4.1 3.4 7.6 7.6 7.6 4.1 0 7.5-3.4 7.5-7.6 0-4.3-3.4-7.6-7.5-7.6zm2.8 12.4c-.4 0-1 0-1.1-.3l-1.4-2.9h-1.4v2.9c0 .3-.6.3-1 .3s-1 0-1-.3v-9.5h3.4c1.9 0 3.2.8 3.2 2.9v.7c0 .3 0 1.7-1.2 2.5l1.5 3.3c.2.3-.6.4-1 .4zm-1.3-7c0-.9-.4-1-1.3-1h-1.3v2.7h1.6c.6 0 1-.2 1-1v-.7z"/><path class="st2" d="M14.4 93.1c-4.4 0-8.1 3.6-8.1 8.1v184c0 4.4 3.6 8.1 8.1 8.1h154.2v43.8l39.2-43.8h48.7c5.4 0 13.2-3.2 17-7l53.1-53.1c3.8-3.8 7-11.6 7-17v-115c0-4.5-3.6-8.1-8-8.1H14.4z"/><g><path class="st0" d="M56.2 242.7c-3.7 0-7.2 0-7.2-1.5v-89.4H35.3c-1 0-1.3-2.7-1.3-5.6 0-2.9 0-4.9 1.3-5.5l17.4-6.6h11v107.1c0 1.5-3.8 1.5-7.5 1.5zM122.8 243.9c-18.3 0-32.3-9-32.3-28.9v-5.6c0-10.6 5.2-18.1 11.6-23-5.6-4.9-10.2-11.5-10.2-21.1v-4.1c0-20 13.3-28.9 31.5-28.9 18.4 0 32.4 9 32.4 28.9v4.1c0 9.1-5.3 16.6-11.2 21.2 6.6 4.9 12.2 12.4 12.2 22.8v5.6c.2 20-15.7 29-34 29zm.7-99.6c-12.4 0-19.2 5-19.2 18.9 0 14.2 10 18.6 19.5 18.6 9.4 0 19.4-4.4 19.4-18.6.1-14-7.2-18.9-19.7-18.9zm19.8 66.9c0-14-10.2-18.7-19.6-18.7s-19.3 4.7-19.3 18.7v1.9c0 14.1 9.9 18.9 19.3 18.9s19.6-4.7 19.6-18.9v-1.9zM208.2 243.9c-18.3 0-32.3-9-32.3-28.9v-5.6c0-10.6 5.2-18.1 11.6-23-5.6-4.9-10.2-11.5-10.2-21.1v-4.1c0-20 13.3-28.9 31.5-28.9 18.4 0 32.4 9 32.4 28.9v4.1c0 9.1-5.3 16.6-11.2 21.2 6.6 4.9 12.2 12.4 12.2 22.8v5.6c.2 20-15.7 29-34 29zm.8-99.6c-12.4 0-19.2 5-19.2 18.9 0 14.1 10 18.6 19.5 18.6 9.4 0 19.4-4.4 19.4-18.6 0-14-7.2-18.9-19.7-18.9zm19.7 66.9c0-14-10.2-18.7-19.6-18.7-9.4 0-19.3 4.7-19.3 18.7v1.9c0 14.1 9.9 18.9 19.3 18.9s19.6-4.7 19.6-18.9v-1.9zM282.6 242.7c-3.7 0-7.2 0-7.2-1.5v-89.4h-13.7c-1 0-1.3-2.7-1.3-5.6 0-2.9 0-4.9 1.3-5.5l17.4-6.6h11v107.1c0 1.5-3.9 1.5-7.5 1.5z"/></g></svg>